# AST/ASF file generated using VICON BodyLanguage
# -----------------------------------------------
:version 1.10
:name VICON
:units
  mass 1.0
  length 0.45
  angle deg
:documentation
   .ast/.asf automatically generated from VICON data using
   VICON BodyBuilder and BodyLanguage model FoxedUp or BRILLIANT.MOD
:root
   order TX TY TZ RX RY RZ
   axis XYZ
   position 0 0 0  
   orientation 0 0 0 
:bonedata
  begin
     id 1 
     name lhipjoint
     direction 0.537252 -0.787203 0.302774 
     length 2.29576 
     axis 0 0 0  XYZ
  end
  begin
     id 2 
     name lfemur
     direction 0.34202 -0.939693 0  
     length 7.31114  
     axis 0 0 20  XYZ
    dof rx ry rz
    limits (-160.0 20.0)
           (-70.0 70.0)
           (-60.0 70.0)
  end
  begin
     id 3 
     name ltibia
     direction 0.34202 -0.939693 0   
     length 8.36008   
     axis 0 0 20   XYZ
    dof rx
    limits (-10.0 170.0)
  end
  begin
     id 4 
     name lfoot
     direction 0.0969116 -0.266263 0.959016   
     length 2.16704   
     axis -90 7.62852e-016 20   XYZ
    dof rx rz
    limits (-45.0 90.0)
           (-70.0 20.0)
  end
  begin
     id 5 
     name ltoes
     direction 1.53563e-011 -4.21779e-011 1   
     length 1.08338   
     axis -90 7.62852e-016 20   XYZ
    dof rx
    limits (-90.0 20.0)
  end
  begin
     id 6 
     name rhipjoint
     direction -0.588228 -0.754791 0.290308   
     length 2.39434  
     axis 0 0 0  XYZ 
  end
  begin
     id 7 
     name rfemur
     direction -0.34202 -0.939693 0   
     length 7.45207   
     axis 0 0 -20   XYZ
    dof rx ry rz
    limits (-160.0 20.0)
           (-70.0 70.0)
           (-70.0 60.0)
  end
  begin
     id 8 
     name rtibia
     direction -0.34202 -0.939693 0   
     length 8.03565   
     axis 0 0 -20   XYZ
    dof rx
    limits (-10.0 170.0)
 end
 begin
     id 9 
     name rfoot
     direction -0.107009 -0.294004 0.949795   
     length 2.11509  
     axis -90 -7.62852e-016 -20   XYZ
    dof rx rz
    limits (-45.0 90.0)
           (-20.0 70.0)
  end
  begin
     id 10 
     name rtoes
     direction -1.53533e-011 -4.22004e-011 1   
     length 1.05493   
     axis -90 -7.62852e-016 -20   XYZ
    dof rx
    limits (-90.0 20.0)
  end
  begin
     id 11 
     name lowerback
     direction -0.0115208 0.997969 -0.0626515   
     length 2.03153   
     axis 0 0 0   XYZ
    dof rx ry rz
    limits (-20.0 45.0)
           (-30.0 30.0)
           (-30.0 30.0)
  end
  begin
     id 12 
     name upperback
     direction -0.00423475 0.999974 -0.00583614   
     length 2.03619   
     axis 0 0 0   XYZ
    dof rx ry rz
    limits (-20.0 45.0)
           (-30.0 30.0)
           (-30.0 30.0)
  end
  begin
     id 13 
     name thorax
     direction 0.00289429 0.999728 0.0231573   
     length 2.03921   
     axis 0 0 0   XYZ
    dof rx ry rz
    limits (-20.0 45.0)
           (-30.0 30.0)
           (-30.0 30.0)
  end
  begin
     id 14 
     name lowerneck
     direction 0.0188995 0.987777 0.154721   
     length 1.78836   
     axis 0 0 0   XYZ
    dof rx ry rz
    limits (-20.0 45.0)
           (-30.0 30.0)
           (-30.0 30.0)
  end
  begin
     id 15 
     name upperneck
     direction -0.00612612 0.992995 -0.118   
     length 1.81789   
     axis 0 0 0   XYZ
    dof rx ry rz
    limits (-20.0 45.0)
           (-30.0 30.0)
           (-30.0 30.0)
  end
  begin
     id 16
     name head
     direction -0.00420226 0.998397 -0.0564482  
     length 1.82234  
     axis 0 0 0   XYZ
    dof rx ry rz
    limits (-20.0 45.0)
           (-30.0 30.0)
           (-30.0 30.0)
  end
  begin
     id 17 
     name lclavicle
     direction 0.916488 0.396539 0.0529676  
     length 3.51732  
     axis 0 0 0   XYZ
    dof ry rz
    limits (-20.0 10.0)
           (0.0 20.0)
  end
  begin
     id 18 
     name lhumerus
     direction 1 -4.4896e-011 8.36962e-028   
     length 5.45077   
     axis 180 -30 -90   XYZ
    dof rx ry rz
    limits (-60.0 90.0)
           (-90.0 90.0)
           (-90.0 90.0)
  end
  begin
     id 19
     name lradius
     direction 1 -4.48962e-011 3.01407e-027   
     length 3.05488   
     axis 180 -30 -90   XYZ
    dof rx
    limits (-10.0 170.0)
  end
  begin
     id 20
     name lwrist
     direction 1 -4.49002e-011 4.72961e-027   
     length 1.52744   
     axis -2.72261e-015 90 90   XYZ
    dof ry
    limits (-180.0 0.0)
 end
  begin
     id 21 
     name lhand
     direction 1 -4.4899e-011 9.45681e-027   
     length 0.638818   
     axis -6.0311e-015 90 90   XYZ
    dof rx rz
    limits (-90.0 90.0)
           (-45.0 45.0)
  end
  begin
     id 22 
     name lfingers
     direction 1 -4.48871e-011 1.88632e-026   
     length 0.515032   
     axis -1.20625e-014 90 90   XYZ
    dof rx
    limits (0.0 90.0)
  end
  begin
     id 23
     name lthumb
     direction 0.707107 -6.34964e-011 0.707107   
     length 0.739485   
     axis -90 45 6.32835e-014   XYZ
    dof rx rz
    limits (-45.0 45.0)
           (-45.0 45.0)
  end
  begin
     id 24 
     name rclavicle
     direction -0.949427 0.303202 0.0815894   
     length 3.76167  
     axis 0 0 0   XYZ 
    dof ry rz
    limits (-10.0 20.0)
           (-20.0 0.0)
  end
  begin
     id 25 
     name rhumerus
     direction -1 -4.48971e-011 -6.43969e-018  
     length 4.88702   
     axis 180 30 90   XYZ
    dof rx ry rz
    limits (-90.0 60.0)
           (-90.0 90.0)
           (-90.0 90.0)
  end
  begin
     id 26 
     name rradius
     direction -1 -4.48987e-011 5.46662e-027   
     length 3.22603   
     axis 180 30 90   XYZ
    dof rx
    limits (-10.0 170.0)
  end
  begin
     id 27 
     name rwrist
     direction -1 -4.48956e-011 4.72476e-027   
     length 1.61302   
     axis -2.72261e-015 -90 -90   XYZ
    dof ry
    limits (-180.0 0.0)
  end
  begin
     id 28
     name rhand
     direction -1 -4.4889e-011 9.43571e-027   
     length 0.716293   
     axis -6.0311e-015 -90 -90   XYZ
    dof rx rz
    limits (-90.0 90.0)
           (-45.0 45.0)
  end
  begin
     id 29
     name rfingers
     direction -1 -4.48887e-011 1.88701e-026   
     length 0.577494   
     axis -1.20625e-014 -90 -90   XYZ
    dof rx
    limits (0.0 90.0)
  end
  begin
     id 30
     name rthumb
     direction -0.707107 -6.34825e-011 0.707107   
     length 0.829169   
     axis -90 -45 -6.32835e-014   XYZ
    dof rx rz
    limits (-45.0 45.0)
           (-45.0 45.0)
  end
:hierarchy
  begin
    root lhipjoint rhipjoint lowerback
    lhipjoint lfemur
    lfemur ltibia
    ltibia lfoot
    lfoot ltoes
    rhipjoint rfemur
    rfemur rtibia
    rtibia rfoot
    rfoot rtoes
    lowerback upperback
    upperback thorax
    thorax lowerneck lclavicle rclavicle
    lowerneck upperneck
    upperneck head
    lclavicle lhumerus
    lhumerus lradius
    lradius lwrist
    lwrist lhand lthumb
    lhand lfingers
    rclavicle rhumerus
    rhumerus rradius
    rradius rwrist
    rwrist rhand rthumb
    rhand rfingers
  end

#!OML:ASF F:\VICON\USERDATA\INSTALL\rory3\rory3.ASF
:FULLY-SPECIFIED
:DEGREES
1932
root 0.470855 18.6005 0.385346 -267.242 86.6637 -287.354
lowerback 2.28734 -0.620402 -0.909769
upperback 1.02595 -0.83633 -0.767694
thorax -0.229741 -0.41362 -0.255496
lowerneck -19.4072 0.88335 4.2199
upperneck 17.535 0.373279 -1.60155
head 8.68744 0.304267 -1.18525
rclavicle 4.57205e-015 -9.44227e-015
rhumerus 41.9825 12.1566 -102.782
rradius 49.1485
rwrist -58.7211
rhand -35.4809 1.60265
rfingers 7.12502
rthumb -8.60888 -28.2018
lclavicle 4.57205e-015 -9.44227e-015
lhumerus 39.2216 -7.38401 100.804
lradius 54.6034
lwrist 76.8021
lhand -19.0965 28.2091
lfingers 7.12502
lthumb 7.21196 58.0662
rfemur -24.8425 -4.28038 14.6182
rtibia 10.6836
rfoot -5.50312 2.67952
rtoes -10.654
lfemur -28.3048 9.29762 -23.7137
ltibia 16.7463
lfoot -7.52277 -2.08269
ltoes -29.552
1933
root 0.470057 18.6002 0.385803 -266.99 86.6624 -287.119
lowerback 2.28499 -0.645235 -0.922218
upperback 1.02072 -0.869705 -0.766588
thorax -0.233505 -0.430318 -0.246576
lowerneck -19.3397 0.905453 4.21131
upperneck 17.405 0.398551 -1.5586
head 8.63197 0.318584 -1.16526
rclavicle 5.01931e-015 2.39536e-014
rhumerus 42.0044 12.502 -102.382
rradius 49.3089
rwrist -58.1699
rhand -36.2467 1.22683
rfingers 7.12502
rthumb -9.34787 -28.5459
lclavicle 5.01931e-015 2.39536e-014
lhumerus 39.2313 -7.45414 100.551
lradius 54.6493
lwrist 76.4701
lhand -19.0263 28.3661
lfingers 7.12502
lthumb 7.27977 58.2209
rfemur -24.835 -4.23551 14.5899
rtibia 10.6393
rfoot -5.4874 2.62254
rtoes -10.062
lfemur -28.3311 9.23487 -23.6992
ltibia 16.7711
lfoot -7.54009 -2.03315
ltoes -29.7026
1934
root 0.469754 18.6001 0.38568 -266.85 86.6514 -287.036
lowerback 2.23877 -0.64493 -0.92393
upperback 1.00614 -0.869064 -0.773849
thorax -0.222647 -0.43009 -0.253525
lowerneck -19.366 0.914384 4.25893
upperneck 17.3828 0.407341 -1.61596
head 8.62949 0.319114 -1.19137
rclavicle 1.41634e-014 -5.76476e-015
rhumerus 42.0843 12.7639 -101.939
rradius 49.1165
rwrist -56.6796
rhand -35.7482 0.819626
rfingers 7.12502
rthumb -8.86682 -28.9741
lclavicle 1.41634e-014 -5.76476e-015
lhumerus 39.2002 -7.66483 100.241
lradius 54.7534
lwrist 75.7988
lhand -19.105 28.3922
lfingers 7.12502
lthumb 7.20383 58.2496
rfemur -24.8666 -4.30012 14.5943
rtibia 10.5615
rfoot -5.39922 2.66924
rtoes -9.75296
lfemur -28.4032 9.24668 -23.7304
ltibia 16.7872
lfoot -7.53869 -2.05502
ltoes -29.5575
1935
root 0.469261 18.601 0.387014 -267.126 86.6521 -287.3
lowerback 2.26435 -0.626077 -0.943729
upperback 0.994048 -0.844986 -0.760995
thorax -0.248913 -0.418101 -0.229454
lowerneck -19.3249 0.875458 4.22894
upperneck 17.3514 0.365244 -1.6199
head 8.61007 0.296647 -1.19304
rclavicle -1.27222e-014 1.35174e-014
rhumerus 42.1282 13.0932 -101.314
rradius 49.1304
rwrist -55.187
rhand -34.7479 0.074946
rfingers 7.12502
rthumb -7.90142 -29.7574
lclavicle -1.27222e-014 1.35174e-014
lhumerus 39.1451 -8.00351 99.778
lradius 54.8488
lwrist 74.9786
lhand -19.1844 28.2259
lfingers 7.12502
lthumb 7.12714 58.0859
rfemur -24.8374 -4.3504 14.6279
rtibia 10.5169
rfoot -5.3779 2.72818
rtoes -10.0171
lfemur -28.3863 9.30791 -23.7376
ltibia 16.7754
lfoot -7.56764 -2.10038
ltoes -29.7244
1936
root 0.467472 18.6026 0.388689 -267.603 86.6883 -287.767
lowerback 2.30164 -0.63347 -0.90812
upperback 0.99669 -0.854568 -0.755524
thorax -0.267498 -0.42275 -0.243132
lowerneck -19.2543 0.881221 4.19752
upperneck 17.2477 0.380892 -1.60339
head 8.56269 0.302451 -1.1797
rclavicle -1.59028e-015 -1.76918e-014
rhumerus 42.1909 13.6174 -100.592
rradius 49.1647
rwrist -53.5273
rhand -33.6644 -0.0233354
rfingers 7.12502
rthumb -6.85562 -29.8923
lclavicle -1.59028e-015 -1.76918e-014
lhumerus 39.1471 -8.33136 99.1977
lradius 54.9159
lwrist 73.8476
lhand -19.0984 28.5391
lfingers 7.12502
lthumb 7.21021 58.3963
rfemur -24.818 -4.31657 14.6749
rtibia 10.4802
rfoot -5.30141 2.72298
rtoes -10.0876
lfemur -28.3776 9.26008 -23.6628
ltibia 16.7773
lfoot -7.5646 -2.01791
ltoes -29.644
1937
root 0.465691 18.6029 0.3909 -267.659 86.698 -287.817
lowerback 2.3486 -0.644484 -0.917051
upperback 0.993119 -0.870105 -0.733928
thorax -0.296931 -0.430497 -0.215039
lowerneck -19.216 0.870355 4.14088
upperneck 17.174 0.382765 -1.60199
head 8.53074 0.298722 -1.16934
rclavicle -1.23246e-014 -6.95746e-016
rhumerus 42.2373 14.2317 -99.7306
rradius 49.1799
rwrist -51.7685
rhand -33.5941 0.801486
rfingers 7.12502
rthumb -6.78773 -29.0697
lclavicle -1.23246e-014 -6.95746e-016
lhumerus 39.1623 -8.69612 98.5869
lradius 54.9729
lwrist 72.4885
lhand -19.1615 28.6297
lfingers 7.12502
lthumb 7.14929 58.4889
rfemur -24.8349 -4.34752 14.7089
rtibia 10.5015
rfoot -5.29339 2.76714
rtoes -10.3852
lfemur -28.3579 9.24188 -23.6322
ltibia 16.7639
lfoot -7.56099 -1.99511
ltoes -29.6174
1938
root 0.46518 18.6018 0.391222 -268.199 86.6989 -288.398
lowerback 2.31362 -0.63194 -0.89575
upperback 0.97211 -0.853026 -0.742421
thorax -0.299356 -0.421995 -0.236359
lowerneck -19.0682 0.84647 4.10431
upperneck 17.0192 0.358529 -1.56596
head 8.45137 0.287321 -1.15336
rclavicle -4.17448e-015 -5.46658e-015
rhumerus 42.2672 14.8162 -98.7782
rradius 49.2653
rwrist -49.738
rhand -33.8503 1.83918
rfingers 7.12502
rthumb -7.03505 -28.0239
lclavicle -4.17448e-015 -5.46658e-015
lhumerus 39.0892 -9.18869 97.8419
lradius 55.1024
lwrist 70.993
lhand -19.501 28.2293
lfingers 7.12502
lthumb 6.82154 58.0994
rfemur -24.9095 -4.35062 14.7201
rtibia 10.5373
rfoot -5.32104 2.81531
rtoes -10.2233
lfemur -28.3944 9.25291 -23.6304
ltibia 16.7632
lfoot -7.56504 -1.95816
ltoes -29.4768
1939
root 0.46523 18.6005 0.390521 -268.299 86.6257 -288.525
lowerback 2.30119 -0.638316 -0.950067
upperback 0.943722 -0.863031 -0.758746
thorax -0.32087 -0.427019 -0.222336
lowerneck -18.955 0.836224 4.04447
upperneck 16.9539 0.356892 -1.5195
head 8.40915 0.287276 -1.12765
rclavicle -4.96962e-015 -2.37548e-014
rhumerus 42.3072 15.3194 -97.9807
rradius 49.2518
rwrist -47.2073
rhand -33.5504 2.48931
rfingers 7.12502
rthumb -6.74557 -27.3832
lclavicle -4.96962e-015 -2.37548e-014
lhumerus 38.9926 -9.77166 96.8515
lradius 55.2974
lwrist 69.3505
lhand -20.1315 28.194
lfingers 7.12502
lthumb 6.21283 58.0829
rfemur -24.9793 -4.37037 14.6437
rtibia 10.6044
rfoot -5.356 2.82759
rtoes -9.87229
lfemur -28.4249 9.25666 -23.7213
ltibia 16.7549
lfoot -7.55271 -1.9536
ltoes -29.2075
1940
root 0.466601 18.6005 0.392423 -267.926 86.6384 -288.166
lowerback 2.29578 -0.65015 -0.925678
upperback 0.921257 -0.878736 -0.75865
thorax -0.341166 -0.434838 -0.235398
lowerneck -18.9199 0.810443 3.98291
upperneck 16.9362 0.328272 -1.46022
head 8.39596 0.276044 -1.10103
rclavicle 6.70898e-015 2.8128e-014
rhumerus 42.3964 15.7877 -97.1969
rradius 49.0767
rwrist -44.2047
rhand -33.3333 2.35449
rfingers 7.12502
rthumb -6.53602 -27.5247
lclavicle 6.70898e-015 2.8128e-014
lhumerus 38.921 -10.4446 95.8149
lradius 55.2384
lwrist 66.9801
lhand -20.2852 28.2146
lfingers 7.12502
lthumb 6.06445 58.1078
rfemur -25.0007 -4.36304 14.6608
rtibia 10.6424
rfoot -5.41403 2.81064
rtoes -10.2761
lfemur -28.443 9.24145 -23.7036
ltibia 16.763
lfoot -7.51915 -1.93768
ltoes -29.308
1941
root 0.46704 18.6017 0.394693 -267.912 86.6253 -288.146
lowerback 2.32575 -0.651862 -0.956877
upperback 0.907964 -0.882335 -0.747999
thorax -0.370892 -0.436624 -0.206457
lowerneck -18.9753 0.792973 3.98932
upperneck 16.993 0.311499 -1.51367
head 8.42438 0.263339 -1.12259
rclavicle -1.76421e-014 -9.24349e-015
rhumerus 42.5448 16.2425 -96.2767
rradius 48.8069
rwrist -40.3462
rhand -33.1306 1.83338
rfingers 7.12502
rthumb -6.3403 -28.0517
lclavicle -1.76421e-014 -9.24349e-015
lhumerus 38.8309 -11.1276 94.7648
lradius 55.0647
lwrist 64.0853
lhand -20.0994 27.8605
lfingers 7.12502
lthumb 6.2439 57.7485
rfemur -25.0028 -4.35953 14.6547
rtibia 10.665
rfoot -5.39181 2.80856
rtoes -10.2582
lfemur -28.452 9.26475 -23.716
ltibia 16.7761
lfoot -7.48313 -1.96038
ltoes -29.5557
1942
root 0.468865 18.602 0.395215 -268.511 86.6269 -288.745
lowerback 2.33634 -0.656978 -0.954064
upperback 0.898478 -0.889447 -0.745151
thorax -0.386505 -0.440152 -0.204728
lowerneck -19.0011 0.784491 3.98628
upperneck 17.0075 0.302243 -1.52665
head 8.43349 0.257428 -1.12775
rclavicle 6.60959e-015 1.22253e-014
rhumerus 42.7003 16.8069 -95.2479
rradius 48.5415
rwrist -35.5672
rhand -32.7304 2.05634
rfingers 7.12502
rthumb -5.9539 -27.84
lclavicle 6.60959e-015 1.22253e-014
lhumerus 38.7976 -11.8254 93.576
lradius 54.9442
lwrist 61.29
lhand -20.2223 27.8878
lfingers 7.12502
lthumb 6.12519 57.7792
rfemur -24.9884 -4.3847 14.6781
rtibia 10.6273
rfoot -5.39422 2.86991
rtoes -10.272
lfemur -28.458 9.2671 -23.706
ltibia 16.806
lfoot -7.51265 -1.91318
ltoes -29.7166
